<?xml version="1.0" encoding="UTF-8"?>
<svg id="Layer_2" xmlns="http://www.w3.org/2000/svg" version="1.1" viewBox="0 0 563.66 775.45">
  <!-- Generator: Adobe Illustrator 30.0.0, SVG Export Plug-In . SVG Version: 2.1.1 Build 123)  -->
  <defs>
    <style>
      .st0 {
        fill: #bb2637;
      }
    </style>
  </defs>
  <path class="st0" d="M328.63,456.59c-7.07-.69-14.18-1.04-21.28-1.04-.95,0-1.89,0-2.84.02-6.91.09-11.68,6.93-9.32,13.42l11.73,32.22c3.19,8.77,15.6,8.77,18.79,0l11.37-31.24c2.24-6.15-1.93-12.74-8.44-13.38Z"/>
  <path class="st0" d="M434.91,288.89l-50.32,138.21c-1.9,5.21.81,10.97,6.03,12.83,4.73,1.68,9.41,3.51,14.02,5.47,12.15,5.16,23.3,12.06,33.19,20.44,6.5,5.51,16.46.9,16.46-7.61v-165.92c0-11.18-15.57-13.93-19.39-3.42Z"/>
  <path class="st0" d="M38.29,127.35v487.07h487.07V127.35H38.29ZM484.3,559.75v12.93c-.02,5.52-4.49,9.99-10.01,9.99h-9.99c-5.52,0-10-4.48-10-10v-11.92c0-.25,0-.51-.03-.76-2.61-38.15-26.64-72.24-61.35-86.99-4.17-1.77-8.41-3.41-12.68-4.93-5.17-1.83-10.85.86-12.73,6.01l-37.12,101.97c-1.44,3.95-5.19,6.58-9.39,6.58l-7.52.04h-1.92c-4.2,0-7.95-2.64-9.38-6.58l-38.92-107.04c-1.76-4.85-6.94-7.57-11.93-6.26-32.25,8.46-62.01,24.15-87.36,46.09-3.08,2.67-4.19,6.96-2.85,10.81l16.04,46.15c1.8,5.19-.91,10.85-6.08,12.7l-9.41,3.36c-5.18,1.85-10.87-.83-12.75-6l-76.95-211.43c-1.89-5.19.79-10.92,5.97-12.81l9.4-3.42c5.19-1.89,10.93.78,12.82,5.97l42.41,116.47c2.29,6.29,10.01,8.61,15.36,4.59,24.48-18.37,52.07-32.02,81.52-40.33,5.6-1.58,8.69-7.57,6.7-13.04l-90.14-247.66c-1.89-5.19.79-10.93,5.98-12.81l9.41-3.42c5.19-1.89,10.92.79,12.81,5.98l93.1,255.82c1.55,4.25,5.75,6.9,10.26,6.54,6.62-.53,13.25-.79,19.83-.79,12.19,0,24.39.91,36.45,2.69,4.68.69,9.19-2.03,10.81-6.47l94.03-258.08c1.44-3.95,5.19-6.58,9.39-6.58h16.25c5.52,0,10,4.48,10,10v392.64Z"/>
</svg>