<?xml version="1.0" encoding="UTF-8"?>
<svg id="Layer_2" data-name="Layer 2" xmlns="http://www.w3.org/2000/svg" viewBox="0 0 304.48 290.1" preserveAspectRatio="xMidYMid meet">
  <g id="Layer_1-2" data-name="Layer 1">
    <path d="M199.39,124.51l1.92.27c.41-.53.68-1.14,1.18-1.61,2.55-2.47,5.74-6.52,7.86-9.51,1.32-1.87,2.22-4.96,3.74-6.72,2.19-2.53,5.92-5.33,7.97-8.02,2.37-3.13,4.18-7.74,6.37-11,1.03-1.53,4.1-3.34,5.53-5.13,3.46-4.34,4.03-10.43,6.74-14.96,1.65-2.75,3.76-4.25,5.7-6.53,2.93-3.44,2.33-3.44,6.29-6.34,7.27-5.34,14.77-10.54,22.2-15.71,1.31-.91,3.81-1.73,4.7-2.41.63-.48,1.37-2.63,2.1-3.22,1.12-.9,4.13-1.57,5.4-2.31,1.14-.67,1.54-2.11,2.4-2.73,2.56-1.83,5.09-3.72,7.88-5.54,1.13-.74,1.3-1.91,3.3-1.28.46.14.71.7,1.1.88,1.11.52,2.37.36,2.69,2.09.19,1.06-1.96,2.46-2.82,2.96-.51.29-1.27.23-1.84.53-2.19,1.14-1.19,2.7-1.81,4.11-.48,1.08-3.65,3.03-4.05,3.65-.26.4-3.28,7.98-3.56,8.87-3.88,11.67-5.88,24.58-10.78,35.8-.14.93.42,1.75.22,2.54-3.46,8.12-5.08,17.45-7.53,26.01-2.34,8.76-4.95,17.64-7.02,26.51-.95,4.08-1.63,8.73-3.05,12.73-2.35,6.65-2.55,13.89-4.46,20.78-.26.93-1.66,2.53-1.87,3.66-.23,1.31.12,2.94-.02,4.32-.64,6.26-1.37,12.24-2.47,18.43-2.25,12.71-2.58,25.7-3.87,38.72.35,5.55.25,12.76,1.22,18.14.31,1.69,3.36,5.74,4.04,7.83.92,2.8-2.18,3.45-3.63,4.44-10.54,6.66-19.4,15.4-29.72,22.41-.76.52-2.93,2.13-3.53,2.39-1.05.46-2.86.12-4.08.56-.91-.25-1.21-2.8-1.83-3.62-.57-.77-2.54-1.78-3.19-2.83-.4-.64-.36-1.35-.76-2-.17-.28-4.86-3.79-5.16-3.92-.75-.34-1.62-.11-2.38-.38-5.28-1.92-17-6.99-21.61-9.81-.25-.15-.29-.83-.77-.99-1.12-.39-2.99.24-4.22-.14-.79-.24-3.04-1.78-4.13-2.19-.52-.2-1.24-.01-1.8-.18-.85-.25-1.32-1.57-2.14-1.81-2.42-.32-6.77-.85-9.37-.16l-2.47-3.09-3.41.76c-2.43-2.17-5.37-1.55-8.35-1.96-3.31-.45-7.07-1.42-10.34-1.55-2.5-.1-3.63.73-6.68,0-4.37-1.05-12.65-.91-17.06-.02-.95.19-2.16.53-3.09.42-1.96-.23-2.55-2.02-4.1-2.65-2.02-.82-5.18-.5-7.4-.5-5.49-.02-10.27,1.27-15.82,1.18-.86-.01-1.72-.44-2.77-.43-2.3.03-4.21,1.42-5.98,1.59-1.16.11-2.03-.38-3.11-.41-2.18-.06-4.36,1.02-6.43,1.51-5.93,1.39-11.72,3.03-17.6,4.53-1.79.46-4.24,1.46-6.04,1.5-1.32.03-2.48-.89-3.45-.73-.69.11-3.37.88-4.42,1.13-6.37,1.54-11.48,5.14-17.29,6.81-1.02.29-2,.11-2.81.35-.75.22-1.37,1.43-2.05,1.9-1.88,1.3-6.16,3.2-5.77-.61.19-1.87,1.8-2.07,2.81-3.12,2.07-2.14,3.29-4.14,5.95-5.9,11.12-7.38,23.75-11.47,35.95-16.2,11.28-4.37,24.33-7.81,36.29-10.73,5.42-1.32,10.93-1.88,16.39-2.98,1.39-.28,3.77-1.35,4.89-1.47.99-.11,2.19.47,3.51.4,8.68-1.79,17.65-2.31,26.5-3.16,20.22-1.81,42.09-1.94,62.21,2.63.88.32,1.51,1.15,1.93,1.26.92.24,2.06-.94,3.38-.67,4.7.95,9.64,2.37,14.3,3.51,2.01.5,7.99,2.47,9.5,2.33,3.4-.32.96-3.57.97-5.32,0-2.06,1.07-6.5.84-8.26-.14-1.08-3.09-4.03-1.68-6.28-.08-.49-3.28-2.59-3.89-3.57-1.62-2.62-1.55-4.2-2.05-7.03s-1.17-5.78-1.43-8.76c-.13-1.45.71-1.97-.39-4.02-1.2-2.25-1.91-.44-3.23-1.09-2.67-1.33-.99-4.63-1.18-7.13-2.24-6.78.22-12.79,1.66-19.21.97-4.97,2.31-9.94,3.57-14.58,1.16-4.25,3.05-8.87,1.87-13.3-.66-.13-.81.17-1.13.64-1.13,1.68-2.05,4.78-3.28,6.59-.7,1.03-1.84,1.7-2.48,2.66-.88,1.32-1.61,3.75-2.43,5.06-.6.96-1.88,1.68-2.54,2.59-1.67,2.31-2.67,5.1-4.74,7.1-3.03,2.94-6.45,4.75-9.69,7.3-6.13,4.79-11.74,10.5-18.59,14.18-1.48,1.13-2.02,3.42-3.54,4.35-5.06,2.97-9.38,8.21-14.86,10.42-.57.57-.25,1.52-.58,2.18s-4.89,3.5-5.71,3.76c-5.35,1.7-2.73-2.26-3.2-4.74-.2-1.06-1.73-2.78-1.94-3.97-.57-3.22.92-5.65,1.17-8.66.25-2.98-.48-7.11.02-9.84.18-.97,1.31-1.64,1.21-2.78l-1.55-1.64c-.98-3.26,1.33-5.36,1.82-7.9,1.03-5.41-.26-10.01.1-14.85.15-2.01,2.07-6.14,2.38-8.7.26-2.17-.03-6.88-.41-9.08-.08-.47-.21-.71-.6-.99-1.2.98-2.97,1.13-4.12,1.8-1.04.61-2.33,2.43-3.4,3.32-3.62,3.03-11.92,9.15-13.42,13.44-.65,7.17-2.14,14.97-2.95,22.28-.56,4.29.08,9.87-.4,14.18-.38,3.37-4.84,3.52-6.73,4.73-1.68,1.07-3.64,3.9-5.36,5.3-6.19,5.04-13.32,9.94-19.36,15-1.5,1.25-2.34,2.91-3.8,4.1-1.82,1.48-4.86,2.61-7.09,3.18-.97,1.5-1.43,3.83-2.95,4.94-1.63,1.2-5.48,1.99-6.87.12-.65-2,.45-2.95.7-4.3.35-1.9.45-3.87.93-5.78.31-1.22,1.39-2.86,1.45-4.08.07-1.52-.95-3.06-1.14-4.33-1-6.55,3.22-13.08,2.37-19.71-.24-1.85-2.04-2.25-1.59-4.7,3.7-7.32,3.97-13.75,5.65-21.58,1.29-6.5,2.44-11.12,3.09-17.82.58-5.95,2.9-11.25,3.1-17.38.07-2.11,1.35-3.48,1.59-4.76.49-2.65,0-6.92.43-9.82,3.22-13.51,4.48-27.61,6.72-41.4.22-1.26,1.26-2.71,1.47-4.06.36-2.27,0-4.96.58-7.3.36-1.43,1.26-2.44,1.45-4.08.16-1.36-.2-2.98.13-4.2.91-3.4,4.27-5.99,6.83-8.17s5.5-4.3,8.31-6.3c1.3-.93,1.91-2.61,3.16-3.55,1.17-.88,3.14-1.41,4.35-2.36,1.68-1.33,3.56-4.34,5.14-5.52,1.51-1.13,4.12-1.77,5.54-2.75.95-.66,1.36-1.84,2.15-2.59,1.74-1.64,4-3.26,5.77-4.89.97-.89,1.41-2.03,2.58-2.95,1.35-1.07,5.5-3.31,7.11-2.81,1.85.58,1.53,2.16,2.06,3.47.45,1.1,1.29.94,1.12,2.87-.11,1.22-.92,1.34-1.2,2.38-1.11,4.14-.86,9.39-1.77,13.21-.41,1.7-2.19,4.07-2.51,5.78-.34,1.86.17,3.99-.11,5.8-.15.98-.9,1.64-1.08,2.47-.68,3.13-.49,6.37-.91,9.35-.17,1.2-.98,1.94-1.14,2.81-.54,13.71-4.11,27.79-6.93,41.19-.2.91-.84,1.69-.98,2.57-.3,1.93.27,4.25-.11,6.2-.76,3.89-2.75,8.43-3.43,12.35-.22,1.26-1.02,7.84-.78,8.57s2.32.67,2.85.53c.94-.25,1.67-2.1,2.65-2.82.9-.66,2.33-.83,2.97-1.38.81-.69.64-2.01,1.18-2.76.46-.63,1.91-1.09,2.34-2.01,1.14-2.45,1.34-3.62,2.98-6.1,3.19-4.84,4.82-8.79,7.2-14.11,1.32-2.96.98-3.99,1.68-7,1.15-4.97,2.18-11.1,3.65-15.68,2.31-7.17,2.7-15.89,7.55-21.64,1.69-5.83,2.85-9.65,6.63-14.68,3.55-4.73,7.76-5.33,11.84-8.69,3.04-2.51,4.51-3.52,7.69-5.74,2.66-1.86,4.75-4.54,7.92-5.86.43-.18,1.05.33,1.59,0,.24-.15,1.94-3.43,3.37-4.55,1.14-.9,2.52-1.21,3.33-1.81,2.29-1.68,4.97-5,7.8-6.81,1.21-.78,4.87-1.82,5.09-1.99.78-.63,2.22-3.41,2.95-3.8,1.26-.67,6.82.69,5.73,3.34-.69,1.69-3.36,4.99-4.47,6.98-3.34,6-7.14,13.08-8.86,19.55-.25.93-1.69,1.94-1.83,2.54-.13.54.34,1.33.27,2.18-.17,1.94-1.34,4.02-1.8,5.74-.7,2.62-.71,4.27-1.61,7.07-1.27,3.97-1.36,7-2.16,10.85-2.27,10.9-4.93,21.85-6.6,32.85-1.24,8.14-1.83,16.25-2.79,24.42-.35,3-1.66,5.82-1.52,8.82Z"/>
  </g>
</svg>